<?xml version="1.0" encoding="UTF-8"?>
<svg width="30px" height="35px" viewBox="0 0 30 35" version="1.1" xmlns="http://www.w3.org/2000/svg" xmlns:xlink="http://www.w3.org/1999/xlink">
    <!-- Generator: Sketch 62 (91390) - https://sketch.com -->
    <title>Combined Shape</title>
    <desc>Created with Sketch.</desc>
    <g id="Page-1" stroke="none" stroke-width="1" fill="none" fill-rule="evenodd">
        <g id="Artboard" transform="translate(-478.000000, -534.000000)" fill="#020303">
            <path d="M501.6962,536.1261 C505.0492,537.5521 506.8642,540.3191 506.7792,544.0071 C506.6992,547.4751 504.7332,549.5491 501.6412,550.7241 C501.4992,550.7771 501.3822,550.8971 501.4872,550.8251 C501.1422,551.1031 501.1712,551.1501 501.3262,551.2111 C505.3922,552.7891 507.0722,554.8891 507.1192,558.4411 C507.1782,562.9521 505.4662,566.0251 501.4602,567.4491 C495.4982,569.5671 489.4012,569.5971 483.4952,567.2001 C479.0572,565.3991 477.1422,559.7151 479.2252,555.3631 C480.2852,553.1511 482.2602,552.1171 484.4132,551.3731 C484.3252,550.9271 484.0012,550.9831 483.7782,550.8901 C480.8612,549.6611 478.9292,547.6521 478.8782,544.3111 C478.8262,540.8521 480.1722,538.1321 483.3102,536.4521 C485.1142,535.4871 487.0642,535.0121 489.0612,534.8111 C493.3522,534.3811 497.6212,534.3941 501.6962,536.1261 Z M492.9105,554.4737 C490.6165,554.4117 489.0855,556.0317 489.0475,558.5567 C489.0115,560.9617 490.5105,562.6247 492.7385,562.6547 C494.9705,562.6827 496.5435,561.0357 496.553561,558.6587 C496.5645,556.2307 495.0855,554.5317 492.9105,554.4737 Z M492.8139,541.2691 C490.8529,541.2561 489.4649,542.8481 489.4879,545.0831 C489.5109,547.3301 490.9249,548.9711 492.8169,548.9471 C494.7489,548.9231 496.2979,547.0921 496.2249,544.9171 C496.1549,542.8361 494.7009,541.2811 492.8139,541.2691 Z" id="Combined-Shape"></path>
        </g>
    </g>
</svg>