<?xml version="1.0" encoding="UTF-8"?>
<svg width="48px" height="34px" viewBox="0 0 48 34" version="1.1" xmlns="http://www.w3.org/2000/svg" xmlns:xlink="http://www.w3.org/1999/xlink">
    <!-- Generator: Sketch 62 (91390) - https://sketch.com -->
    <title>Group 2</title>
    <desc>Created with Sketch.</desc>
    <g id="Page-1" stroke="none" stroke-width="1" fill="none" fill-rule="evenodd">
        <g id="Artboard" transform="translate(-457.000000, -662.000000)" fill="#020303">
            <g id="Group-2" transform="translate(457.000081, 662.650892)">
                <path d="M42.4839188,22.6051079 C42.6169188,25.9451079 43.2939188,26.7761079 46.5789188,27.4381079 C47.1439188,27.5521079 47.2059188,27.8041079 47.2569188,28.2761079 C47.7559188,32.8391079 47.7629188,32.8381079 43.2019188,32.8381079 C37.8049188,32.8381079 32.4079188,32.7931079 27.0119188,32.8741079 C25.7729188,32.8921079 25.4139188,32.5141079 25.5919188,31.3681079 C25.6489188,31.0041079 25.5969188,30.6251079 25.6019188,30.2521079 C25.6139188,29.4021079 25.3699188,28.4171079 25.7149188,27.7391079 C26.0759188,27.0311079 27.1639188,27.5211079 27.9079188,27.3031079 C30.0159188,26.6861079 31.3369188,25.3021079 31.9289188,23.2021079 C32.3979188,21.5411079 32.4109188,19.8341079 32.2469188,18.1421079 C31.9029188,14.5941079 29.6269188,12.3581079 26.0729188,12.0611079 C25.0929188,11.9791079 24.5289188,11.7901079 24.6329188,10.5931079 C24.7559188,9.16710788 24.1749188,7.41910788 24.8119188,6.37110788 C25.4719188,5.28210788 27.3929188,5.86210788 28.7379188,5.58510788 C30.3379188,5.25710788 31.5519188,4.41710788 32.0869188,2.77710788 C32.3649188,1.92310788 32.6569188,1.07510788 32.9429188,0.223107883 C36.0269188,-0.0648921166 39.1119188,0.00910788338 42.1979188,0.183107883 C42.6279188,0.808107883 42.4719188,1.52310788 42.4729188,2.20210788 C42.4859188,8.00510788 42.5049188,13.8091079 42.4579188,19.6131079 C42.4489188,20.6121079 42.8719188,21.6081079 42.4839188,22.6051079" id="Fill-25"></path>
                <path d="M17.6675188,0.242807883 C17.6785188,6.63580788 17.6895188,13.0278079 17.7015188,19.4208079 C17.7045188,20.9078079 17.7125188,22.3888079 17.9885188,23.8668079 C18.4275188,26.2218079 19.2835188,27.1388079 21.6935188,27.4218079 C22.3855188,27.5028079 22.5405188,27.7468079 22.5895188,28.3928079 C22.9265188,32.8398079 22.9415188,32.8388079 18.5785188,32.8388079 C13.1735188,32.8388079 7.7695188,32.8168079 2.3655188,32.8580779 C1.3965188,32.8658079 0.849518801,32.7018079 1.0435188,31.5878079 C1.0975188,31.2778079 1.0495188,30.9498079 1.0515188,30.6308079 C1.0575188,29.7248079 0.845518801,28.7438079 1.1245188,27.9328079 C1.4955188,26.8568079 2.7105188,27.6408079 3.4875188,27.2648079 C4.1505188,26.9438079 4.8525188,26.7068079 5.4415188,26.2438079 C9.3325188,23.1868079 8.2645188,14.5088079 3.7575188,12.5528079 C3.1235188,12.2768079 2.4745188,11.9978079 1.7755188,12.0618079 C0.332518801,12.1938079 -0.0184811986,11.5038079 0.106518801,10.1748079 C0.231518801,8.85480788 -0.322481199,7.17180788 0.307518801,6.28580788 C0.931518801,5.40880788 2.7315188,5.79380788 4.0135188,5.60380788 C6.4045188,5.25280788 7.7095188,3.55580788 8.1615188,0.307807883 C9.0425188,-0.197192117 10.0045188,0.0668078834 10.9175188,0.0858078834 C13.1675188,0.133807883 15.4265188,-0.166192117 17.6675188,0.242807883" id="Fill-27"></path>
            </g>
        </g>
    </g>
</svg>