<?xml version="1.0" encoding="UTF-8"?>
<svg width="29px" height="36px" viewBox="0 0 29 36" version="1.1" xmlns="http://www.w3.org/2000/svg" xmlns:xlink="http://www.w3.org/1999/xlink">
    <!-- Generator: Sketch 62 (91390) - https://sketch.com -->
    <title>Fill 7</title>
    <desc>Created with Sketch.</desc>
    <g id="Page-1" stroke="none" stroke-width="1" fill="none" fill-rule="evenodd">
        <g id="Artboard" transform="translate(-466.000000, -408.000000)" fill="#020303">
            <path d="M478.2848,439.8297 C481.8138,439.3067 483.0858,437.8087 482.9298,434.4247 C482.8218,432.0727 481.6358,430.6907 479.0468,430.0877 C476.1188,429.4057 473.1328,429.8097 470.1748,429.7997 C468.8948,429.7947 468.4318,429.5517 468.5158,428.1697 C468.6478,425.9937 468.5308,423.8027 468.5628,421.6177 C468.5738,420.8797 468.5118,420.3397 467.5708,420.4807 C466.7088,420.6107 466.6568,420.2117 466.8228,419.4637 C467.4668,416.5677 468.0448,413.6567 468.6398,410.7507 C468.8158,409.8907 469.1538,409.5037 470.1928,409.4447 C476.2688,409.1007 480.7298,411.9417 484.4128,416.4427 C484.6808,416.7707 484.9348,417.1107 485.2018,417.4407 C485.2208,417.4647 485.2828,417.4527 485.4798,417.4727 C485.4798,415.9527 485.4178,414.4397 485.4938,412.9337 C485.6268,410.2947 487.1128,408.6297 489.3488,408.4877 C491.1678,408.3717 492.6298,409.2437 493.4428,410.9257 C494.9558,414.0597 494.1598,417.8927 491.6778,420.2947 C489.8438,422.0707 487.7418,421.9607 485.4848,421.6967 C481.5478,421.2367 477.5948,420.9147 473.6548,420.4777 C472.6428,420.3657 472.3818,420.6807 472.4418,421.6707 C472.5308,423.1427 472.4648,424.6247 472.4648,426.3617 C476.4268,424.2737 480.2018,423.1197 484.3318,423.3447 C488.8948,423.5927 492.8888,426.3087 494.0268,430.0697 C495.5238,435.0157 493.2338,440.1847 488.3848,442.1457 C482.7898,444.4077 477.0078,444.3337 471.2978,442.5897 C468.1958,441.6427 466.9038,439.4867 467.0118,436.3097 C467.1038,433.5737 468.3878,431.8067 470.7168,431.2047 C473.0158,430.6117 475.2278,431.6467 476.5808,433.9267 C477.6608,435.7457 477.9598,437.7947 478.2848,439.8297" id="Fill-7"></path>
        </g>
    </g>
</svg>