<?xml version="1.0" encoding="UTF-8"?>
<svg width="33px" height="34px" viewBox="0 0 33 34" version="1.1" xmlns="http://www.w3.org/2000/svg" xmlns:xlink="http://www.w3.org/1999/xlink">
    <!-- Generator: Sketch 62 (91390) - https://sketch.com -->
    <title>Combined Shape</title>
    <desc>Created with Sketch.</desc>
    <g id="Page-1" stroke="none" stroke-width="1" fill="none" fill-rule="evenodd">
        <g id="Artboard" transform="translate(-476.000000, -366.000000)" fill="#020303">
            <path d="M494.2394,366.6178 C496.4444,366.5738 498.6504,366.5928 500.8554,366.6168 C501.2344,366.6218 501.7104,366.3828 501.9864,366.8858 L502.025525,375.0178 C502.0364,377.72855 502.0404,380.4393 502.0234,383.1498 C502.0164,384.2698 502.2964,384.5308 503.3544,384.2108 C505.0594,383.6938 506.7954,383.2778 508.6584,382.7818 C508.6584,385.5878 508.6264,388.2828 508.6754,390.9758 C508.6944,392.0078 508.1014,391.7908 507.5574,391.6458 C505.7834,391.1748 504.0204,390.6658 502.0484,390.1148 C502.0484,391.1168 502.0764,391.9928 502.0414,392.8668 L502.031288,393.104707 C501.981556,394.290124 501.9839,395.382488 503.8214,394.9728 C504.4914,394.8238 504.5954,395.2928 504.5854,395.8438 C504.5624,397.1188 504.5674,398.3948 504.5604,399.6708 C504.1904,399.9738 503.7504,399.8508 503.3404,399.8518 C498.5374,399.8598 493.7344,399.8608 488.9314,399.8498 C488.5284,399.8488 488.0784,400.0048 487.7354,399.6328 C487.7384,398.9418 487.7464,398.2498 487.7464,397.5578 C487.7484,395.2328 487.7464,395.2268 489.9934,394.9668 C490.3724,394.9228 490.7804,394.9558 490.7884,394.4268 C490.8054,393.2568 490.8354,392.0838 490.7884,390.9158 C490.7544,390.0588 490.0354,390.3408 489.5734,390.3388 C485.7104,390.3188 481.8464,390.2898 477.9844,390.3518 C476.9324,390.3688 476.6254,390.1598 476.5194,389.0048 C476.2664,386.2418 477.0854,384.0898 478.8864,381.9508 C482.7404,377.3728 486.3164,372.5588 490.0154,367.8478 C490.3074,367.4768 490.6684,367.1618 490.9964,366.8208 C492.0534,366.3828 493.1594,366.6398 494.2394,366.6178 Z M490.8862,373.3227 C488.0652,377.1637 485.5162,380.6337 482.7872,384.3507 C485.3892,384.3507 487.6602,384.3537 489.9312,384.3487 C490.3842,384.3477 490.8992,384.4827 490.894236,383.6997 C490.8742,380.3847 490.8862,377.0687 490.8862,373.3227 Z" id="Combined-Shape"></path>
        </g>
    </g>
</svg>