<?xml version="1.0" encoding="UTF-8"?>
<svg width="31px" height="35px" viewBox="0 0 31 35" version="1.1" xmlns="http://www.w3.org/2000/svg" xmlns:xlink="http://www.w3.org/1999/xlink">
    <!-- Generator: Sketch 62 (91390) - https://sketch.com -->
    <title>Combined Shape</title>
    <desc>Created with Sketch.</desc>
    <g id="Page-1" stroke="none" stroke-width="1" fill="none" fill-rule="evenodd">
        <g id="Artboard" transform="translate(-465.000000, -577.000000)" fill="#020303">
            <path d="M487.2161,579.2194 C490.8761,580.7104 493.1511,583.6314 494.3291,587.3244 C495.5911,591.2814 495.7881,595.3614 494.8881,599.4374 C493.4401,605.9974 489.0321,609.5294 482.8051,611.0414 C478.6071,612.0594 474.3351,612.1944 470.0401,611.7354 C468.6561,611.5874 469.3341,610.4324 469.0501,609.7724 C468.6801,608.9114 469.6001,609.0214 469.9951,608.9454 C473.1201,608.3384 476.1581,607.4724 478.9071,605.8264 C482.0531,603.9414 484.0591,601.2534 484.5191,597.0704 C483.0911,599.1594 481.7371,600.7404 479.6741,601.5344 C474.1871,603.6444 468.3841,600.9634 466.4481,595.3944 C464.2511,589.0774 466.5751,582.2974 472.0321,579.6034 C476.9921,577.1564 482.1331,577.1514 487.2161,579.2194 Z M482.7734,586.4616 C481.3754,584.5116 478.8594,584.5686 477.7084,586.6576 C476.4284,588.9806 476.3734,591.4616 477.6234,593.8086 C478.8064,596.0296 481.5004,596.0556 482.9224,593.9736 C483.6324,592.9336 483.8994,591.7666 483.8614,590.5196 C483.9364,589.0476 483.6334,587.6626 482.7734,586.4616 Z" id="Combined-Shape"></path>
        </g>
    </g>
</svg>