<?xml version="1.0" encoding="UTF-8"?>
<svg width="23px" height="34px" viewBox="0 0 23 34" version="1.1" xmlns="http://www.w3.org/2000/svg" xmlns:xlink="http://www.w3.org/1999/xlink">
    <!-- Generator: Sketch 62 (91390) - https://sketch.com -->
    <title>Group 24</title>
    <desc>Created with Sketch.</desc>
    <defs>
        <polygon id="path-1" points="0.232994362 0.544 22.8545018 0.544 22.8545018 33.3995628 0.232994362 33.3995628"></polygon>
    </defs>
    <g id="Page-1" stroke="none" stroke-width="1" fill="none" fill-rule="evenodd">
        <g id="Artboard" transform="translate(-422.000000, -271.000000)">
            <g id="Group-24" transform="translate(422.000000, 271.000000)">
                <mask id="mask-2" fill="white">
                    <use xlink:href="#path-1"></use>
                </mask>
                <g id="Clip-23"></g>
                <path d="M1.2015,28.645 C1.1925,28.132 1.2115,27.827 1.9125,27.733 C5.7235,27.22 7.0595,26.038 7.7485,22.417 C8.1265,20.43 8.1035,18.389 7.3825,16.452 C6.3585,13.699 4.2035,12.427 1.4125,12.236 C0.4155,12.167 0.1825,11.847 0.2415,10.917 C0.3225,9.645 0.2935,8.363 0.2505,7.088 C0.2275,6.403 0.4545,6.136 1.1475,6.157 C1.7245,6.176 2.3055,6.066 2.8865,6.024 C6.0615,5.795 7.2795,4.919 8.0815,1.893 C8.3815,0.762 8.8695,0.509 9.9315,0.548 C12.1505,0.628 14.3775,0.632 16.5955,0.547 C17.6645,0.506 17.8985,0.861 17.8895,1.88 C17.8425,7.625 17.8625,13.37 17.8735,19.115 C17.8745,19.799 17.8895,20.4407571 17.9330191,21.1563054 C17.9665668,21.8310599 18.0590476,22.3486976 18.1095,22.975 C18.2065,26.218 19.1695,27.411 22.1085,27.737 C22.7785,27.811 22.8655,28.072 22.8535,28.619 C22.8225,30.106 22.8215,31.594 22.8095,33.081 C22.5965,33.554 22.1715,33.36 21.8395,33.361 C15.3135,33.373 8.7875,33.372 2.2615,33.363 C1.9165,33.363 1.5095,33.512 1.2545,33.111 C1.2375,31.622 1.2275,30.133 1.2015,28.645 Z" id="Fill-22" fill="#020303" mask="url(#mask-2)"></path>
            </g>
        </g>
    </g>
</svg>