<?xml version="1.0" encoding="UTF-8"?>
<svg width="30px" height="35px" viewBox="0 0 30 35" version="1.1" xmlns="http://www.w3.org/2000/svg" xmlns:xlink="http://www.w3.org/1999/xlink">
    <!-- Generator: Sketch 62 (91390) - https://sketch.com -->
    <title>Fill 20</title>
    <desc>Created with Sketch.</desc>
    <g id="Page-1" stroke="none" stroke-width="1" fill="none" fill-rule="evenodd">
        <g id="Artboard" transform="translate(-466.000000, -493.000000)" fill="#020303">
            <path d="M471.9571,497.8478 C475.6031,493.1138 480.2301,493.4728 485.0661,494.7808 C486.4381,495.1508 487.8061,495.5508 489.1961,495.8368 C490.5081,496.1078 491.6901,495.7618 492.7071,494.8268 C493.0421,494.5178 493.2841,493.5378 493.9941,494.3938 C494.5241,495.0318 495.7301,495.1748 495.1311,496.6148 C492.9351,501.8908 490.8861,507.2308 488.7831,512.5468 C487.0501,516.9268 485.2841,521.2948 483.6091,525.6978 C483.2281,526.7008 482.7631,527.0688 481.6681,527.0408 C478.2971,526.9578 474.9231,527.0108 471.2111,527.0108 C476.6151,519.8558 481.8281,512.9518 487.1841,505.8598 C483.2501,505.9648 479.5911,505.1878 475.9031,505.7708 C472.5001,506.3088 469.9671,508.1248 468.0641,510.9518 C467.8051,511.3368 467.7461,512.1808 467.0391,511.9148 C466.4181,511.6828 466.7791,510.9728 466.7771,510.4928 C466.7501,505.4838 466.7481,500.4738 466.7811,495.4638 C466.7851,494.9758 466.3691,494.0468 467.2571,494.0618 C468.2151,494.0768 469.4121,493.3928 470.1451,494.6008 C470.7491,495.5948 471.2821,496.6318 471.9571,497.8478" id="Fill-20"></path>
        </g>
    </g>
</svg>