<?xml version="1.0" encoding="UTF-8"?>
<svg width="31px" height="35px" viewBox="0 0 31 35" version="1.1" xmlns="http://www.w3.org/2000/svg" xmlns:xlink="http://www.w3.org/1999/xlink">
    <!-- Generator: Sketch 62 (91390) - https://sketch.com -->
    <title>Combined Shape</title>
    <desc>Created with Sketch.</desc>
    <g id="Page-1" stroke="none" stroke-width="1" fill="none" fill-rule="evenodd">
        <g id="Artboard" transform="translate(-477.000000, -450.000000)" fill="#020303">
            <path d="M499.4518,450.3342 C500.7118,450.4042 501.9578,450.7352 503.2178,450.8132 C504.6598,450.9032 504.4488,451.9862 504.6188,452.8822 C504.8388,454.0372 503.8838,453.6792 503.3898,453.8122 C499.4618,454.8742 495.8388,456.4972 492.9258,459.4502 C491.6198,460.7742 490.5518,462.2572 489.8478,464.4542 C494.3578,460.5552 499.2998,460.0222 503.4338,462.8612 C506.8228,465.1882 507.5788,468.7392 507.5258,472.5442 C507.4338,479.0432 504.0428,483.0172 497.6348,484.1642 C494.2078,484.7772 490.7698,484.7322 487.4408,483.6222 C482.3108,481.9112 479.3108,478.2382 478.3428,472.9582 C477.0218,465.7612 478.5308,459.4002 484.4198,454.6362 C488.7908,451.1002 493.9568,450.0312 499.4518,450.3342 Z M493.395022,467.814299 L493.199,467.8187 C491.738,467.8897 490.412,468.9517 490.058,470.5317 C489.755,471.8857 489.747,473.2987 490.065,474.6507 C490.443,476.2657 491.854,477.3377 493.382,477.3627 C494.873,477.3867 496.077,476.4547 496.584,474.7827 C496.797,474.0787 496.855,473.3277 496.983,472.5987 C496.941,471.7767 496.807,470.9897 496.525,470.2387 C495.911,468.5987 494.716,467.7447 493.199,467.8187 Z" id="Combined-Shape"></path>
        </g>
    </g>
</svg>