<?xml version="1.0" encoding="UTF-8"?>
<svg width="55px" height="35px" viewBox="0 0 55 35" version="1.1" xmlns="http://www.w3.org/2000/svg" xmlns:xlink="http://www.w3.org/1999/xlink">
    <!-- Generator: Sketch 62 (91390) - https://sketch.com -->
    <title>Group 3</title>
    <desc>Created with Sketch.</desc>
    <g id="Page-1" stroke="none" stroke-width="1" fill="none" fill-rule="evenodd">
        <g id="Artboard" transform="translate(-466.000000, -618.000000)" fill="#020303">
            <g id="Group-3" transform="translate(466.003513, 618.571207)">
                <path d="M53.4938873,11.5461933 C54.9968873,17.5681933 54.6078873,23.4571933 50.8028873,28.5821933 C46.9588873,33.7631933 41.5538873,35.3291933 35.4248873,33.9531933 C29.2098873,32.5581933 25.7868873,28.2331933 24.2768873,22.1951933 C23.8608873,20.5291933 23.8188873,18.8331933 23.8188873,17.1241933 C23.8278873,11.6741933 25.3008873,6.7731933 29.6988873,3.2841933 C38.3158873,-3.5508067 50.8128873,0.801193295 53.4938873,11.5461933 Z M39.2511899,8.87158761 L39.0019873,8.8710933 C36.1689873,8.9200933 34.0439873,10.5190933 33.1109873,13.3440933 C32.6949873,14.6070933 32.4569873,15.9070933 32.5629873,17.3380933 C32.3769873,18.3840933 32.6819873,19.4750933 32.9099873,20.5570933 C33.4939873,23.3280933 35.6439873,25.2410933 38.2599873,25.4200933 C41.5489873,25.6440933 43.6439873,24.4210933 44.7279873,21.4850933 C45.7559873,18.7020933 45.7359873,15.8560933 44.7459873,13.0670933 C43.7869873,10.3680933 41.5899873,8.8250933 39.0019873,8.8710933 Z" id="Combined-Shape"></path>
                <path d="M17.6025873,13.2140933 C17.8085873,16.4660933 17.2555873,20.4660933 17.8935873,24.4390933 C18.3225873,27.1090933 19.0355873,27.8710933 21.7075873,28.2590933 C22.3495873,28.3520933 22.5265873,28.5840933 22.4725873,29.1520933 C22.4675873,29.2040933 22.4695873,29.2580933 22.4725873,29.3120933 C22.6755873,33.5270933 22.6755873,33.5270933 18.5175873,33.5270933 C13.1135873,33.5270933 7.70958727,33.4920933 2.30758727,33.5560933 C1.16858727,33.5690933 0.760587274,33.2360933 0.950587274,32.1370933 C0.967587274,32.0330933 0.951587274,31.9250933 0.952587274,31.8180933 C0.959587274,30.7530933 0.640587274,29.5220933 1.06858727,28.6710933 C1.47258727,27.8690933 2.85958727,28.2280933 3.76758727,27.8900933 C5.23558727,27.3450933 6.34358727,26.3660933 6.89458727,24.9060933 C7.92358727,22.1790933 8.05158727,19.3800933 6.96258727,16.6520933 C5.92658727,14.0540933 3.77958727,12.8910933 1.10958727,12.7260933 C0.181587274,12.6680933 -0.0314127257,12.3580933 0.0145872743,11.5050933 C0.0795872743,10.2830933 0.100587274,9.0500933 0.00958727427,7.8310933 C-0.0674127257,6.8130933 0.316587274,6.5420933 1.26358727,6.5890933 C2.04758727,6.6290933 2.84458727,6.5170933 3.62858727,6.4140933 C5.88658727,6.1190933 7.29858727,4.8250933 7.69558727,2.5890933 C7.93358727,1.2480933 8.61958727,0.999093295 9.83958727,1.0600933 C11.9535873,1.1630933 14.0815873,1.1800933 16.1935873,1.0570933 C17.4585873,0.984093295 17.6535873,1.4460933 17.6285873,2.5760933 C17.5555873,5.8780933 17.6025873,9.1820933 17.6025873,13.2140933" id="Fill-32"></path>
            </g>
        </g>
    </g>
</svg>