<?xml version="1.0" encoding="UTF-8"?>
<svg width="28px" height="35px" viewBox="0 0 28 35" version="1.1" xmlns="http://www.w3.org/2000/svg" xmlns:xlink="http://www.w3.org/1999/xlink">
    <!-- Generator: Sketch 62 (91390) - https://sketch.com -->
    <title>Fill 16</title>
    <desc>Created with Sketch.</desc>
    <g id="Page-1" stroke="none" stroke-width="1" fill="none" fill-rule="evenodd">
        <g id="Artboard" transform="translate(-466.000000, -325.000000)" fill="#020303">
            <path d="M487.4825,340.6759 C487.6815,340.7749 487.8595,340.8739 488.0455,340.9529 C492.3215,342.7719 494.0555,345.2149 494.0105,349.3629 C493.9675,353.3979 491.8785,356.6149 487.9835,358.0509 C482.7605,359.9769 477.4215,360.0549 472.1535,358.1949 C466.6275,356.2429 466.0515,350.9799 467.7435,346.8049 C468.4905,344.9629 470.4325,343.9719 472.3985,344.1509 C474.2965,344.3219 476.0385,345.8989 476.5625,347.9959 C477.0765,350.0589 477.1665,352.1079 475.9275,353.9789 C475.4945,354.6339 475.8025,354.7639 476.3665,354.9089 C478.7335,355.5209 481.2165,354.1639 481.8665,351.7969 C482.3555,350.0199 482.2785,348.1939 481.7795,346.4399 C481.3165,344.8159 480.1735,343.8169 478.4405,343.7379 C477.0685,343.6739 476.6875,343.0099 476.8315,341.7139 C476.9035,341.0649 477.0545,340.8589 477.7105,340.7289 C481.7305,339.9349 483.5295,335.8499 481.5055,332.2179 C480.6145,330.6189 478.3025,329.7369 476.6665,330.3329 C475.9305,330.6019 476.4045,330.9739 476.5265,331.3219 C477.1325,333.0609 477.3555,334.8209 476.9485,336.6499 C476.3375,339.3909 474.5805,341.1609 472.3785,341.1809 C469.8685,341.2039 467.6095,339.2279 467.0685,336.5369 C466.1065,331.7489 468.2795,327.8929 472.9905,326.5789 C477.8805,325.2169 482.8555,325.3069 487.6975,326.8549 C491.8065,328.1679 493.4895,330.9419 493.1575,335.2459 C492.9585,337.8379 491.5195,339.5769 489.0085,340.2129 C488.5015,340.3409 487.9515,340.3109 487.4825,340.6759" id="Fill-16"></path>
        </g>
    </g>
</svg>