<?xml version="1.0" encoding="UTF-8"?>
<svg width="53px" height="35px" viewBox="0 0 53 35" version="1.1" xmlns="http://www.w3.org/2000/svg" xmlns:xlink="http://www.w3.org/1999/xlink">
    <!-- Generator: Sketch 62 (91390) - https://sketch.com -->
    <title>Group</title>
    <desc>Created with Sketch.</desc>
    <defs>
        <polygon id="path-1" points="0.201910218 0.139445352 23.1351558 0.139445352 23.1351558 33 0.201910218 33"></polygon>
    </defs>
    <g id="Page-1" stroke="none" stroke-width="1" fill="none" fill-rule="evenodd">
        <g id="Artboard" transform="translate(-467.000000, -702.000000)">
            <g id="Group" transform="translate(467.000000, 702.899141)">
                <path d="M36.9669,23.9730586 C42.1519,23.4110586 47.3379,22.8480586 52.7219,22.2640586 C51.5489,25.9350586 50.4249,29.3980586 49.3459,32.8750586 C49.1559,33.4900586 48.7849,33.5410586 48.2749,33.5400586 C40.8599,33.5350586 33.4449,33.5390586 26.0299,33.5280586 C25.7119,33.5280586 25.1089,33.7070586 25.1859,33.1520586 C25.3149,32.2300586 24.3899,31.2980586 25.4789,30.3550586 C28.5239,27.7140586 31.4649,24.9530586 34.4449,22.2360586 C35.7009,21.0900586 36.8889,19.8800586 37.9559,18.5480586 C40.2379,15.6970586 40.6199,12.4740586 39.6469,9.07705863 C38.7169,5.83205863 35.7399,4.71805863 32.8849,6.46205863 C35.6529,8.59705863 36.1129,11.5350586 35.6929,14.7400586 C35.2909,17.7920586 33.3139,19.8880586 30.7199,20.1070586 C28.2259,20.3170586 26.0689,18.7610586 25.1919,15.7970586 C23.4689,9.96905863 25.3489,2.88105863 32.3349,0.75905863 C35.4379,-0.18294137 38.5749,-0.17494137 41.7379,0.38305863 C43.8399,0.75505863 45.8269,1.42705863 47.5469,2.72905863 C51.1129,5.42805863 51.9759,9.23005863 51.4939,13.3870586 C50.9919,17.7110586 48.0369,20.0210586 44.2109,21.3440586 C41.7239,22.2040586 39.1779,22.8940586 36.6589,23.6610586 C36.6289,23.7730586 36.3799,23.8310586 36.5469,23.9800586 C36.6579,24.0780586 36.8269,24.0410586 36.9669,23.9730586" id="Fill-14" fill="#020303"></path>
                <g id="Group-31" transform="translate(0.000000, 0.556859)">
                    <mask id="mask-2" fill="white">
                        <use xlink:href="#path-1"></use>
                    </mask>
                    <g id="Clip-30"></g>
                    <path d="M22.9137,32.9562 C16.0777,32.9642 9.2427,32.9562 2.4067,33.0003048 C1.5087,33.0062 1.1417,32.7562 1.2807,31.8522 C1.3117,31.6442 1.2847,31.4262 1.2847,31.2132 C1.2877,30.2002 1.0327,29.0932 1.3587,28.2002 C1.7527,27.1262 3.1017,27.6812 3.9927,27.3342 C5.4707,26.7582 6.5937,25.8902 7.1807,24.4382 C8.2777,21.7282 8.3787,18.9472 7.3487,16.2032 C6.3917,13.6532 4.4017,12.3522 1.7557,12.2232 C0.5517,12.1632 0.2317,11.7682 0.3217,10.6172 C0.4307,9.2402 -0.1073,7.5852 0.4857,6.5352 C1.1277,5.3962 2.9667,6.0952 4.2637,5.8072 C6.0927,5.4002 7.3077,4.4292 7.9137,2.6692 C8.1717,1.9202 8.4037,1.1612 8.6477,0.4062 C11.7077,0.0572 14.7687,0.0402 17.8287,0.4172 C17.8607,6.3642 17.8857,12.3112 17.9287,18.2592 C17.9397,19.6922 17.9447,21.1312 18.0657,22.5582 C18.3957,26.4642 19.1487,27.2492 22.9417,27.8422 C23.1637,29.5482 23.2437,31.2542 22.9137,32.9562" id="Fill-29" fill="#020303" mask="url(#mask-2)"></path>
                </g>
            </g>
        </g>
    </g>
</svg>