<?xml version="1.0" encoding="UTF-8"?>
<svg width="29px" height="34px" viewBox="0 0 29 34" version="1.1" xmlns="http://www.w3.org/2000/svg" xmlns:xlink="http://www.w3.org/1999/xlink">
    <!-- Generator: Sketch 62 (91390) - https://sketch.com -->
    <title>Fill 9</title>
    <desc>Created with Sketch.</desc>
    <g id="Page-1" stroke="none" stroke-width="1" fill="none" fill-rule="evenodd">
        <g id="Artboard" transform="translate(-464.000000, -276.000000)" fill="#020303">
            <path d="M478.26068,299.706239 C482.86368,299.237239 487.46668,298.769239 492.28768,298.277239 C491.07668,302.101239 489.89368,305.837239 488.71068,309.574239 C488.44368,309.811239 488.11468,309.755239 487.80368,309.755239 C480.46368,309.758239 473.12368,309.758239 465.78368,309.755239 C465.47068,309.755239 465.14568,309.804239 464.86768,309.594239 C464.17268,307.624239 464.93068,306.377239 466.47168,305.008239 C470.34968,301.560239 474.49268,298.362239 477.72868,294.237239 C479.98668,291.358239 480.19168,288.098239 479.12168,284.727239 C478.20068,281.824239 474.84468,280.549239 472.58068,282.445239 C475.42768,285.294239 476.24168,289.066239 474.77368,292.607239 C473.87368,294.776239 472.23068,296.082239 469.92868,296.117239 C467.74768,296.149239 466.17768,294.894239 465.21068,292.914239 C461.71568,285.754239 466.13868,277.391239 473.97468,276.266239 C477.60268,275.745239 481.14568,275.941239 484.57168,277.280239 C490.95168,279.774239 493.40668,288.427239 489.26068,293.772239 C487.55368,295.973239 485.06068,296.900239 482.55168,297.748239 C480.80668,298.338239 479.03468,298.841239 477.27468,299.383239 C477.09668,299.585239 476.87168,299.705239 476.90668,299.696239 C477.15868,299.626239 477.72468,300.064239 478.26068,299.706239" id="Fill-9"></path>
        </g>
    </g>
</svg>