<?xml version="1.0" encoding="UTF-8"?>
<svg width="238px" height="22px" viewBox="0 0 238 22" version="1.1" xmlns="http://www.w3.org/2000/svg" xmlns:xlink="http://www.w3.org/1999/xlink">
    <!-- Generator: Sketch 62 (91390) - https://sketch.com -->
    <title>Group</title>
    <desc>Created with Sketch.</desc>
    <g id="Page-1" stroke="none" stroke-width="1" fill="none" fill-rule="evenodd">
        <g id="Artboard" transform="translate(-202.000000, -153.000000)" fill="#010103">
            <g id="Group" transform="translate(202.000000, 152.726200)">
                <path d="M177.949329,2.62304706 C178.290976,2.63728235 178.789212,3.03587059 178.921212,3.37104706 C179.882741,5.81692941 180.765329,8.29257647 181.678976,10.7565765 C182.219918,12.2176353 182.7738,13.6735176 183.314741,15.1332824 C183.555447,15.7816353 183.973447,15.9563412 184.739565,15.6263412 C184.538976,15.0375176 184.343565,14.4732824 184.154624,13.9051647 C183.372976,11.5343412 185.076035,8.6394 187.519329,8.04281176 C189.5498,7.54716471 191.410741,7.66881176 193.059447,9.08198824 C193.480035,9.44175294 193.799682,9.32528235 193.935565,8.79598824 C194.088271,8.1994 194.506271,8.06998824 195.054976,8.07904706 C196.3478,8.09845882 197.641918,8.09069412 198.934741,8.10363529 C199.357918,8.10751765 199.897565,8.02987059 199.871682,8.67304706 C199.850976,9.20622353 200.224976,9.93481176 199.231094,10.1289294 C198.991682,10.1742235 198.688859,10.6698706 198.677212,10.9688118 C198.621565,12.4661059 198.749682,13.9750471 198.631918,15.4658706 C198.366624,18.8370471 197.165682,20.2631647 194.494624,21.0745765 C193.448976,21.3929294 192.304976,21.5495176 191.215329,21.5171647 C189.532976,21.4679882 187.853212,21.2246941 186.1838,20.9852824 C185.884859,20.9425765 185.418976,20.5181059 185.418976,20.2696353 C185.418976,19.7157529 185.642859,19.1541059 185.836976,18.6170471 C185.860271,18.5536353 186.2718,18.6183412 186.502153,18.6416353 C187.926976,18.7878706 189.3518,19.0570471 190.776624,19.0544588 C192.332153,19.0518706 193.239329,18.0023412 193.021918,16.4882235 C190.524271,17.8651647 188.022741,17.9117529 185.648035,16.4416353 C185.513447,16.5581059 185.431918,16.5982235 185.431918,16.6357529 C185.442271,17.7215176 184.878035,17.9441059 183.856976,17.9130471 C181.118624,17.8289294 178.376388,17.8845765 175.635447,17.8586941 C175.163094,17.8535176 174.5018,18.0579882 174.465565,17.2181059 C174.4358,16.5477529 174.270153,15.8126941 175.358506,15.7958706 C175.509918,15.7932824 175.817918,15.3506941 175.775212,15.1798706 C175.540976,14.2351647 175.254976,13.2995176 174.901682,12.3936353 C174.826624,12.2021059 174.399565,12.0545765 174.129094,12.0455176 C172.9618,12.0054 171.789329,11.9937529 170.620741,12.0416353 C170.352859,12.0519882 169.962035,12.2771647 169.858506,12.5075176 C169.545329,13.2011647 169.338271,13.9426941 169.107918,14.6712824 C168.929329,15.2316353 169.093682,15.5590471 169.745918,15.5551647 C170.920976,15.5499882 170.462859,16.4545765 170.539212,17.0317529 C170.6298,17.7163412 170.249329,17.9234 169.593212,17.9001059 C168.3638,17.8586941 167.130506,17.8625765 165.8998,17.8794 C165.266976,17.8884588 165.048271,17.5468118 165.159565,17.0201059 C165.272153,16.4895176 164.7558,15.5486941 165.873918,15.5784588 C166.744859,15.6004588 167.052859,15.1268118 167.300035,14.4409294 C168.625212,10.7604588 169.984035,7.09163529 171.283329,3.4034 C171.496859,2.79775294 171.812624,2.58163529 172.407918,2.58551765 C174.255918,2.59587059 176.105212,2.55057647 177.949329,2.62304706 Z M191.377224,10.4484471 C191.020402,10.4631917 190.679708,10.6085697 190.405612,10.8412155 C190.078037,11.1193761 189.845791,11.5215713 189.794388,11.9743412 C189.752976,12.3379882 189.763329,12.7081059 189.771094,13.0743412 C189.780168,13.5348595 189.871323,13.9244326 190.035411,14.2338029 C190.126272,14.404986 190.239302,14.5514541 190.373086,14.6718575 C190.655961,14.926676 191.031834,15.0647516 191.485938,15.0712758 L191.639929,15.0684471 C192.622165,15.0205647 193.286047,14.1586824 193.232988,12.8102118 C193.229106,12.7789681 193.225461,12.7440005 193.22182,12.7058787 L193.211112,12.5819577 C193.19187,12.3622595 193.166119,12.0786101 193.106035,11.8022235 L193.06946,11.6589118 L193.06946,11.6589118 L193.021917,11.5217877 C193.004243,11.4770857 192.984818,11.4334365 192.96374,11.3909077 C192.68964,10.8373136 192.136549,10.4744931 191.521359,10.4485233 Z M172.462271,5.64481176 C172.326388,5.7794 172.127094,5.8894 172.064976,6.05245882 C171.709094,6.99457647 171.367447,7.94187059 171.056859,8.89951765 C170.747565,9.85587059 170.864035,9.99175294 171.909682,10.0279882 C172.063682,10.0318706 172.216388,10.0279882 172.370388,10.0279882 L172.370388,10.0409294 L172.739212,10.0409294 C173.956976,10.0357529 174.050153,9.93092941 173.707212,8.78304706 C173.438035,7.87716471 173.135212,6.98163529 172.822035,6.09128235 C172.762506,5.92175294 172.585212,5.79234118 172.462271,5.64481176 Z" id="Combined-Shape"></path>
                <path d="M110.769612,3.01645882 C110.198906,3.10575294 109.843024,3.16010588 109.258082,3.25198824 C109.258082,2.51951765 109.212788,1.81292941 109.293024,1.12057647 C109.311141,0.965282353 109.764082,0.753047059 110.019024,0.749164706 C111.773847,0.716811765 113.528671,0.745282353 115.284788,0.729663722 C116.014671,0.723282353 116.216553,1.06881176 116.2062,1.75210588 C116.171259,3.86410588 116.186788,5.97610588 116.190671,8.08681176 C116.191965,8.4194 116.237259,8.75069412 116.276082,9.27610588 C116.718671,9.00822353 117.049965,8.83351765 117.352788,8.61998824 C119.073965,7.40869412 121.547024,7.48504706 123.001612,8.78692941 C124.034318,9.71222353 124.185729,10.9675176 124.294435,12.2150471 C124.373376,13.1261059 124.284082,14.0514 124.337141,14.9676353 C124.353965,15.2432824 124.527376,15.6328118 124.748671,15.7518706 C125.399612,16.1077529 125.825376,16.9774 125.448788,17.5662235 C125.325847,17.7603412 124.938906,17.8729294 124.671024,17.8768118 C122.855376,17.9065765 121.038435,17.9195176 119.221494,17.8794 C118.886318,17.8716353 118.291024,17.6322235 118.2742,17.4575176 C118.223729,16.9256353 118.376435,16.3678706 118.498082,15.8308118 C118.530435,15.6897529 118.842318,15.5875176 118.842318,15.4684588 C118.844906,14.1562235 118.856553,12.8401059 118.745259,11.5356353 C118.724553,11.2936353 118.178435,10.9312824 117.862671,10.9183412 C117.465376,10.9028118 116.815729,11.0814 116.6902,11.3622235 C116.013376,12.8685765 115.869729,14.4124588 116.619024,15.9912824 C116.833847,16.4442235 116.832553,17.0835176 116.695376,17.5726941 C116.641024,17.7681059 115.952553,17.8742235 115.552671,17.8742235 C113.553259,17.8742235 111.553847,17.8224588 109.554435,17.7978706 C109.375847,17.7965765 109.195965,17.8522235 109.017376,17.8897529 C108.565729,17.9855176 108.119259,18.1226941 107.663729,18.1757529 C104.280906,18.5730471 102.498906,17.4083412 102.403141,14.0358706 C102.375965,13.0872824 102.3682,12.1361059 102.409612,11.1888118 C102.439376,10.5106941 102.245259,10.1496353 101.493376,10.1638706 C101.172435,10.1690471 100.848906,10.0124588 100.447729,9.91022353 C100.379141,10.1121059 100.241965,10.3282235 100.239376,10.5469294 C100.222553,12.0455176 100.203141,13.5466941 100.260082,15.0439882 C100.270435,15.3183412 100.579729,15.7609294 100.821729,15.8139882 C101.647376,15.9977529 101.4662,16.5736353 101.467494,17.1055176 C101.468788,17.7150471 101.105141,17.8638706 100.566788,17.8625765 C98.5647882,17.8599882 96.5640824,17.8949294 94.5633765,17.8586941 C94.2954941,17.8548118 93.8360824,17.5494 93.8063176,17.3358706 C93.7338471,16.8143412 93.4957294,16.1866941 94.2359647,15.8101059 C94.5103176,15.6703412 94.8183176,15.2859882 94.8325529,14.9986941 C94.9037294,13.6243412 94.9037294,12.2448118 94.8623176,10.8691647 C94.8558471,10.6414 94.5530235,10.2686941 94.3369059,10.2272824 C93.3611412,10.0448118 93.7079647,9.33434118 93.6833765,8.77916471 C93.6536118,8.12434118 94.1052588,8.0674 94.6125529,8.06998824 C96.1823176,8.07645882 97.7585529,7.98845882 99.3205529,8.10234118 C100.1242,8.16057647 100.891612,8.24210588 101.697847,8.09198824 C102.196082,8.0014 102.414788,7.83575294 102.394082,7.34528235 C102.383729,7.10069412 102.3902,6.85610588 102.388906,6.61022353 C102.381141,5.0974 102.4562,5.00810588 104.007847,4.75316471 C104.948671,4.59916471 105.898553,4.48657647 106.830318,4.29116471 C107.525259,4.14492941 107.724553,4.43610588 107.715494,5.04951765 C107.705141,5.75351765 107.738788,6.46010588 107.701259,7.16151765 C107.668906,7.79692941 107.830671,8.11398824 108.563141,8.09975294 C109.509141,8.08292941 110.091494,9.03022353 109.610082,9.82869412 C109.467729,10.0668118 108.933259,10.1716353 108.581259,10.1651647 C107.874671,10.1522235 107.562788,10.3929294 107.596435,11.1163412 C107.649494,12.2771647 107.605494,13.4444588 107.698671,14.6014 C107.786671,15.7014 108.194318,15.9822235 109.267141,15.8812824 C110.796788,15.7402235 110.782553,15.7402235 110.777376,14.1691647 C110.765729,11.0154 110.770906,7.86292941 110.769612,4.70916471 L110.769612,3.01645882 Z" id="Fill-6"></path>
                <path d="M208.741565,8.14698824 C210.501565,8.66075294 211.706388,9.75945882 212.009212,11.6204 C212.217565,12.9067529 212.318506,14.2086353 212.459565,15.4276941 C213.101447,15.5726353 213.696741,15.7667529 214.306271,15.8301647 C214.867918,15.8896941 215.415329,15.8521647 215.382976,14.9928706 C215.3338,13.6482824 215.410153,12.2998118 215.360976,10.9552235 C215.351918,10.6976941 215.052976,10.2913412 214.816153,10.2292235 C213.820976,9.96651765 214.231212,9.20428235 214.201447,8.64134118 C214.169094,8.00075294 214.716506,8.08098824 215.140976,8.08098824 C216.679682,8.08098824 218.219682,8.09910588 219.758388,8.08616471 C220.452035,8.07969412 220.735447,8.33463529 220.725094,9.06581176 C220.700506,11.0238118 220.752271,12.9818118 220.760035,14.9398118 C220.762624,15.6244 221.003329,15.9569882 221.759094,15.8534588 C222.422976,15.7628706 223.218859,16.0424 223.159329,14.8595765 C223.084271,13.3687529 223.141212,11.8688706 223.141212,10.5411059 C222.641682,10.1787529 222.077447,9.98592941 221.960976,9.64428235 C221.567565,8.48604706 221.906624,8.09263529 223.151565,8.0784 C224.260624,8.06416471 225.369682,8.10557647 226.477447,8.07192941 C227.137447,8.05122353 227.5218,8.20910588 227.560624,8.95451765 C227.578741,9.32981176 227.796153,9.69475294 227.996741,10.2758118 C228.390153,9.91992941 228.690388,9.69992941 228.927212,9.42428235 C230.042741,8.13404706 231.477918,7.60992941 233.134388,7.82604706 C235.439212,8.12498824 236.650506,9.71157647 236.715212,12.3994588 C236.741094,13.4929882 236.720388,14.5891059 236.720388,15.6852235 C236.830388,15.6347529 236.941682,15.5855765 237.051682,15.5364 C237.320859,15.8948706 237.760859,16.2248706 237.822976,16.6144 C237.998976,17.7144 237.784153,17.9007529 236.664741,17.9046353 C235.0018,17.9124 233.337565,17.9292235 231.677212,17.8800471 C231.314859,17.8696941 230.674271,17.6264 230.654859,17.4413412 C230.600506,16.9159294 230.782976,16.3607529 230.916271,15.8275765 C230.969329,15.6179294 231.238506,15.4393412 231.243682,15.2439294 C231.269565,14.1115765 231.309682,12.9740471 231.198388,11.8520471 C231.167329,11.5181647 230.718271,11.0872235 230.363682,10.9539294 C229.836976,10.7559294 229.188624,10.8335765 228.977682,11.4922824 C228.493682,13.0038118 228.132624,14.5256941 229.054035,16.0372235 C229.663565,17.0362824 229.148506,17.8852235 227.959212,17.8878118 C223.648506,17.8968706 219.3378,17.8968706 215.027094,17.8994588 L211.101316,17.8986919 C210.446924,17.8997464 209.792388,17.9024784 209.137565,17.9085176 C208.354624,17.9149882 207.644153,17.8774588 207.469447,16.9004 C207.438388,16.7282824 207.306388,16.5729882 207.327094,16.6118118 C206.186976,17.1825176 205.274624,17.7441647 204.288506,18.1078118 C203.1898,18.5115765 202.084624,18.2501647 201.1218,17.6160471 C200.114976,16.9521647 199.628388,15.9854588 199.876859,14.7728706 C200.127918,13.5525176 200.884976,12.6802824 202.135094,12.5327529 C203.301094,12.3942824 204.499447,12.5055765 205.682271,12.5249882 C205.977329,12.5301647 206.2698,12.6078118 206.580388,12.6544 C206.546741,11.6980471 205.907447,10.9979294 204.964035,10.9604 C204.236741,10.9319294 203.487447,10.9966353 202.776976,11.1532235 C202.160976,11.2878118 201.741682,11.2994588 201.639447,10.5656941 C201.635565,10.5359294 201.623918,10.5061647 201.614859,10.4776941 C201.063565,8.81216471 201.195565,8.55204706 202.902506,8.13663529 C204.846271,7.66298824 206.802976,7.58145882 208.741565,8.14698824 Z M205.264271,13.8553382 C204.291094,13.8540471 203.810976,14.2733412 203.825212,15.1054588 C203.838153,15.9272235 204.345447,16.2313412 205.076624,16.2546353 L205.215792,16.2526415 C206.005057,16.2050993 206.790539,15.5536549 206.821094,14.9229882 C206.850859,14.3108706 206.189565,13.8566353 205.264271,13.8553382 L205.264271,13.8553382 Z" id="Combined-Shape"></path>
                <path d="M74.7769647,4.89577647 C75.5379059,7.01683529 76.2910824,9.11589412 77.0442588,11.2162471 C77.1607294,11.2253059 77.2772,11.2343647 77.3923765,11.2434235 C77.6563765,10.7607176 77.9786118,10.2987176 78.1740235,9.79012941 C78.9828471,7.67812941 79.7554353,5.55448235 80.5383765,3.43342353 C80.7519059,2.85495294 81.1116706,2.58577647 81.7794353,2.59095294 C83.8862588,2.60777647 83.8733176,2.58707059 84.7869647,4.67189412 C85.6954353,6.74507059 86.6246118,8.80789412 87.5667294,10.8668353 C87.6819059,11.1178941 87.9329647,11.3081294 88.1206118,11.5255412 C88.2953176,11.2744824 88.5412,11.0480118 88.6330824,10.7697765 C89.1753176,9.14695294 89.6502588,7.50083529 90.2144941,5.88577647 C90.4526118,5.20507059 90.2403765,4.92942353 89.5959059,4.96565882 C88.4687294,5.02907059 88.6033176,4.27848235 88.5761412,3.56154118 C88.5437882,2.69707059 89.0303765,2.55730588 89.7447294,2.57671765 C90.7606118,2.6026 91.7803765,2.52883529 92.7923765,2.59354118 C93.2957882,2.62589412 93.7849647,2.87307059 94.4126118,3.06201176 C94.8797882,2.72165882 95.4970824,2.0966 96.2437882,1.76401176 C97.7760235,1.07942353 99.4040235,1.80283529 100.056259,3.31436471 C100.611435,4.60201176 100.022612,6.20930588 98.7621412,6.84471765 C97.2350824,7.61471765 95.3974353,7.1566 94.7141412,5.67095294 C94.3504941,4.88154118 93.8884941,4.90483529 93.2142588,4.93071765 C92.4559059,4.95918824 92.2747294,5.40048235 92.0806118,6.00871765 C90.8939059,9.73318824 89.6826118,13.4511882 88.4286118,17.1549529 C88.3250824,17.4590706 87.8592,17.8084824 87.5317882,17.8421294 C86.5870824,17.9391882 85.6255529,17.8693059 84.6717882,17.8964824 C83.9859059,17.9171882 83.6326118,17.6053059 83.3750824,16.9776588 C82.5584941,15.0002471 81.6849647,13.0461294 80.8230824,11.0881294 C80.6897882,10.7866 80.5021412,10.5083647 80.2484941,10.0580118 C79.9987294,10.3763647 79.7670824,10.5640118 79.6752,10.8034235 C78.8715529,12.8830706 78.0899059,14.9717765 77.3082588,17.0591882 C77.1076706,17.5936588 76.8100235,17.9223647 76.1616706,17.8926 C75.2092,17.8473059 74.2450824,17.9417765 73.3016706,17.8408353 C72.9457882,17.8033059 72.4579059,17.4577765 72.3246118,17.1342471 C70.7561412,13.3178941 69.2588471,9.47177647 67.6890824,5.65542353 C67.5221412,5.24777647 67.0640235,4.77283529 66.6615529,4.68612941 C65.7724941,4.4946 65.9653176,3.90189412 65.9459059,3.34930588 C65.9213176,2.64789412 66.4053176,2.57412941 66.9359059,2.57542353 C69.4620235,2.57671765 71.9881412,2.5806 74.5129647,2.58318824 C74.6980235,2.58318824 74.8856706,2.56377647 75.0668471,2.59095294 C75.5637882,2.66471765 76.2496706,2.36965882 76.3622588,3.23024706 C76.4813176,4.15295294 76.2483765,4.46095294 75.2415529,4.69777647 C75.1276706,4.72365882 75.0228471,4.78836471 74.7769647,4.89577647" id="Fill-10"></path>
                <path d="M141.801906,6.73704706 C141.038376,8.72222353 140.269671,10.7061059 139.512612,12.6938706 C138.936729,14.2066941 138.389318,15.7311647 137.788847,17.2349294 C137.691788,17.4782235 137.396729,17.7939882 137.171553,17.8121059 C136.285082,17.8806941 135.385671,17.9001059 134.503082,17.8095176 C134.241671,17.7823412 133.924612,17.3734 133.800376,17.0705765 C132.501082,13.8779882 131.236729,10.6685765 129.950376,7.46822353 C129.837788,7.19128235 129.632024,6.95187059 129.468965,6.69434118 C129.393906,6.72410588 129.320141,6.75387059 129.246376,6.78363529 L129.246376,15.6768118 C130.642729,16.0145765 130.809671,16.1776353 130.562494,17.2103412 C130.501671,17.4704588 130.138024,17.8276353 129.890847,17.8470471 C128.9112,17.9234 127.9212,17.8858706 126.937671,17.8845765 C126.374729,17.8832824 126.024024,17.5752824 126.087435,17.0382235 C126.146965,16.5490471 126.0292,15.8321059 126.857435,15.8088118 C127.478612,15.7932824 127.670141,15.4166941 127.668847,14.9158706 C127.663671,11.7323412 127.654612,8.55010588 127.588612,5.36787059 C127.583435,5.1194 127.1512,4.70528235 126.874259,4.66516471 C125.983906,4.53704706 126.247906,3.92363529 126.219435,3.41245882 C126.185788,2.82234118 126.4692,2.59069412 127.048965,2.59198824 C129.449553,2.60104706 131.851435,2.60104706 134.253318,2.58287164 C134.922376,2.57775294 135.2252,2.92069412 135.452965,3.50045882 C136.276024,5.60598824 137.1392,7.69598824 137.990729,9.79116471 C138.045082,9.92445882 138.1292,10.0474 138.355671,10.4576353 C138.829318,9.31751765 139.2292,8.3974 139.595435,7.46434118 C140.144141,6.07057647 140.633318,4.65351765 141.232494,3.28434118 C141.365788,2.97892941 141.851082,2.64245882 142.182376,2.63598824 C144.797788,2.58163529 147.415788,2.60881176 150.032494,2.59587059 C150.654965,2.59328235 150.928024,2.86892941 150.922847,3.47845882 C150.917671,4.00516471 151.014729,4.58104706 150.233082,4.61728235 C149.615788,4.64704706 149.375082,4.95892941 149.376376,5.55292941 C149.382847,8.67563529 149.382847,11.7970471 149.375082,14.9184588 C149.373788,15.5085765 149.600259,15.8346941 150.226612,15.8554 C151.016024,15.8812824 150.918965,16.4506941 150.916376,16.9825765 C150.913788,17.5701059 150.711906,17.8871647 150.059671,17.8832824 C147.349788,17.8690471 144.639906,17.8703412 141.931318,17.8897529 C141.324376,17.8936353 141.086259,17.5998706 141.103082,17.0576353 C141.117318,16.5555176 140.833906,15.9123412 141.721671,15.7751647 C141.9352,15.7415176 142.2652,15.4154 142.266494,15.2212824 C142.293671,12.5295176 142.274259,9.83645882 142.254847,7.1434 C142.254847,7.01657647 142.143553,6.89104706 142.084024,6.76422353 C141.989553,6.75516471 141.895082,6.74610588 141.801906,6.73704706" id="Fill-12"></path>
                <path d="M60.9947412,11.0914941 C62.3910941,12.7505529 63.5829765,14.3371412 64.9702706,15.7322 C65.5370941,16.3029059 65.5112118,16.8283176 65.3572118,17.3524353 C65.2821529,17.6086706 64.6674471,17.8403176 64.2895647,17.8532588 C62.4752118,17.9102 60.6569765,17.8894941 58.8413294,17.8959778 C57.6132118,17.8998471 57.0101529,17.0366706 57.7038,16.0285529 C58.2059176,15.2986706 57.8396824,14.9479647 57.4320353,14.5817294 C56.8639176,14.0718471 56.4976824,14.6826706 56.1094471,14.9673765 C55.9218,15.1058471 55.8014471,15.3362 55.7069765,15.4565529 C55.9528588,15.8434941 56.2841529,16.1502 56.3514471,16.5060824 C56.5610941,17.6319647 56.3320353,17.8713765 55.1919176,17.8804353 C53.4681529,17.8920824 51.7430941,17.8959778 50.0193294,17.8869059 C49.5702706,17.8856118 49.0163882,17.9503176 49.0138,17.2605529 C49.0099176,16.6911412 48.7446235,15.9819647 49.6673294,15.7956118 C49.8187412,15.7645529 50.0607412,15.6027882 50.0633294,15.4966706 C50.0892118,14.1158471 50.0801529,12.7350235 50.0801529,11.3542 C49.9908588,11.3309059 49.9015647,11.3076118 49.8122706,11.2843176 C49.6505059,11.5224353 49.4861529,11.7566706 49.3282706,11.9960824 C48.7743882,12.8411412 47.9603882,13.2073765 46.9794471,13.1814941 C46.7542706,13.1750235 46.5161529,12.9666706 46.3181529,12.8074941 C45.9635647,12.5202 45.6723882,12.1410235 45.2880353,11.9080824 C44.3498,11.3386706 43.7933294,11.6389059 43.7441529,12.7117294 C43.7143882,13.3536118 43.7363882,13.9967882 43.7519176,14.6386706 C43.7661529,15.2029059 43.6522706,15.7852588 44.5439176,15.9302 C44.7432118,15.9625529 44.8726235,16.8580824 44.8881529,17.3614941 C44.8933294,17.5284353 44.4416824,17.8545529 44.1945059,17.8597294 C42.1938,17.9024353 40.1918,17.9102 38.1923882,17.8584353 C37.9154471,17.8506706 37.4405059,17.4676118 37.4210941,17.2294941 C37.3848588,16.7869059 37.5776824,16.3080824 37.7523882,15.8745529 C37.8675647,15.5833765 38.2674471,15.3517294 38.2778,15.0825529 C38.3321529,13.6771412 38.3140353,12.2678471 38.2907412,10.8598471 C38.2868588,10.6489059 38.1561529,10.2762 38.0383882,10.2580824 C37.1570941,10.1170235 37.3628588,9.47384706 37.3279176,8.91349412 C37.2942706,8.36737647 37.5323882,8.10467059 38.0668588,8.10208235 C39.6974471,8.09561176 41.3293294,8.10467059 42.9599176,8.08784706 C44.0198,8.07749412 43.6587412,8.95490588 43.8826235,9.70290588 C44.2643882,9.37937647 44.5749765,9.17231765 44.8156824,8.90314118 C45.7590941,7.84584706 47.0195647,7.49643529 48.2968588,8.06455294 C48.6876824,8.23796471 49.0034471,8.61196471 49.3062706,8.93808235 C49.5172118,9.16584706 49.6492118,9.46478824 49.8174471,9.73267059 C49.8886235,9.70549412 49.9598,9.67961176 50.0296824,9.65372941 L50.0296824,2.97608235 C49.5482706,3.08608235 49.1483882,3.17925882 48.7342706,3.27502353 C48.6799176,3.15337647 48.6190941,3.07831765 48.6152118,2.99808235 C48.4612118,0.311494118 48.4663882,0.743729412 50.7026235,0.733376471 C52.0575647,0.726905882 53.4125059,0.759258824 54.7661529,0.754082353 C55.3950941,0.752788235 55.6086235,1.01678824 55.6008588,1.64831765 C55.5594471,4.95349412 55.5529765,8.25996471 55.5478,11.5651412 C55.5465059,11.9779647 55.6163882,12.3894941 55.6539176,12.8087882 C56.7409765,12.6030235 57.6598,11.8174941 57.8138,11.0371412 C56.8173294,10.6243176 56.3514471,9.55149412 56.7707412,8.49678824 C56.8445059,8.31172941 57.1822706,8.12149412 57.4009765,8.11761176 C59.1868588,8.08137647 60.9727412,8.06325882 62.7560353,8.11243529 C62.9876824,8.11761176 63.3733294,8.50843529 63.4069765,8.75690588 C63.6412118,10.5194941 63.5519176,10.6036118 61.7453294,10.8753765 C61.5978,10.8986706 61.4554471,10.9569059 60.9947412,11.0914941" id="Fill-14"></path>
                <path d="M8.94947059,4.81994118 C9.74664706,7.029 10.4972353,9.10864706 11.2491176,11.1908824 C11.3591176,11.2128824 11.4691176,11.2361765 11.5804118,11.2594706 C11.8379412,10.791 12.1562941,10.3445294 12.3452353,9.85017647 C13.1618235,7.711 13.9434706,5.56017647 14.7302941,3.40935294 C14.9464118,2.82182353 15.3152353,2.56041176 15.9791176,2.56425153 C18.1260588,2.57464706 18.0962941,2.56558824 18.9607647,4.61288235 C19.8407647,6.699 20.7764118,8.76052941 21.7159412,10.8194706 C21.8388824,11.0899412 22.1287647,11.2866471 22.3422941,11.5157059 C22.517,11.2581765 22.7602941,11.0213529 22.8573529,10.7366471 C23.4060588,9.11641176 23.8991176,7.47547059 24.4568824,5.85782353 C24.695,5.16935294 24.4297059,4.90535294 23.7981765,4.95452941 C22.8508824,5.02958824 22.7434706,4.50288235 22.7719412,3.75747059 C22.8017059,3.03147059 22.9155882,2.52288235 23.8538235,2.57464706 C25.0198235,2.63805882 26.1935882,2.58241176 27.3634706,2.57076471 C27.8474706,2.56425153 28.2771176,2.66782353 28.2085294,3.25535294 C28.1373529,3.85194118 28.5708824,4.74229412 27.5459412,4.89111765 C26.8354706,4.99464706 26.5015882,5.25864706 26.2828824,5.96005882 C25.1168824,9.69358824 23.9004118,13.4102941 22.6502941,17.1153529 C22.5467647,17.4233529 22.0795882,17.7779412 21.7508824,17.8128824 C20.7751176,17.9138235 19.7838235,17.8478235 18.8002941,17.8814706 C18.1351176,17.9047647 17.8335882,17.5708824 17.5877059,16.9898235 C16.709,14.9062941 15.7772353,12.8434706 14.8571176,10.7754706 C14.7600588,10.5580588 14.6099412,10.3639412 14.3640588,9.96405882 C14.1324118,10.3768824 13.9331176,10.6486471 13.8166471,10.9514706 C13.0207647,13.0337059 12.265,15.1301765 11.4367647,17.1981765 C11.3202941,17.4893529 10.8945294,17.8232353 10.593,17.8439412 C9.52017647,17.9164118 8.437,17.9008824 7.36417647,17.8297059 C7.073,17.8102941 6.65111765,17.5359412 6.54629412,17.2758235 C4.99723529,13.4517059 3.49735294,9.60947059 1.97417647,5.775 C1.75029412,5.21076471 1.54323529,4.64782353 0.735705882,4.61935294 C-0.0459411765,4.59217647 0.121,3.93605882 0.106764706,3.43394118 C0.0912352941,2.87358824 0.322882353,2.60182353 0.927235294,2.60311765 C3.85323529,2.607 6.77923529,2.58370588 9.70523529,2.57723529 C10.1788824,2.57594118 10.6033529,2.695 10.5399412,3.29029412 C10.4842941,3.81182353 10.7806471,4.53264706 9.86182353,4.64135294 C9.62370588,4.66982353 9.38947059,4.73323529 8.94947059,4.81994118" id="Fill-16"></path>
                <path d="M160.720612,8.75418824 C161.563082,9.25371765 162.163553,9.22395294 162.8572,8.59630588 C163.179435,8.30512941 163.618141,7.74348235 164.0012,8.54195294 C164.275553,9.11265882 165.218965,9.66395294 164.147435,10.3601882 C162.349906,11.5300706 160.554965,12.7038353 158.767788,13.8879529 C158.370494,14.1519529 158.005553,14.4651294 157.542259,14.8197176 C158.285082,15.5211294 159.025318,15.5198353 159.651671,15.1820706 C160.472141,14.7381882 161.233082,14.1584235 161.938376,13.5463059 C162.401671,13.1451294 162.743318,13.0273647 163.171671,13.5113647 C163.211788,13.5566588 163.259671,13.5967765 163.306259,13.6368941 C164.949788,15.0617176 164.9472,15.1911294 163.233788,16.5176 C160.608024,18.5493647 156.363318,18.8754824 153.447671,17.2694824 C151.752376,16.3377176 150.928024,14.8637176 150.946141,12.9833647 C150.962965,11.1250118 151.696729,9.63030588 153.446376,8.70630588 C155.897435,7.41218824 158.336847,7.34618824 160.720612,8.75418824 Z M157.362376,10.4456 C156.270141,10.8221882 155.898729,11.9804235 156.306376,13.2499529 L156.389673,13.2365371 C157.060813,13.0820724 159.010914,11.7257637 159.092612,11.2764235 C159.128847,11.0810118 159.002024,10.6992471 158.873906,10.6617176 C158.546063,10.5676784 158.175658,10.4362536 157.837078,10.4035651 L157.670785,10.3960791 C157.56215,10.3974141 157.458429,10.4122405 157.362376,10.4456 Z" id="Combined-Shape"></path>
                <path d="M34.7307529,8.51671765 C36.6020471,9.39801176 37.4458118,10.9858941 37.4924552,12.2800118 C37.5014588,15.1697765 36.3962824,16.7951882 34.3528706,17.6208353 C32.0144,18.5655412 29.7276941,18.5034235 27.5691059,17.1471882 C24.6133412,15.2914235 24.5305176,10.8331882 27.4513412,8.9386 C29.7587529,7.4426 32.2512235,7.34812941 34.7307529,8.51671765 Z M33.4599294,10.4320118 C32.1153412,10.4190706 31.1369882,11.5346 31.1382811,13.0797765 C31.1395765,14.5123647 32.0842824,15.5153059 33.4392235,15.5243647 L33.5982876,15.5203437 C34.8559325,15.4476432 35.7494837,14.4101294 35.7557271,12.9814235 C35.7621647,11.4983647 34.8148706,10.4449529 33.4599294,10.4320118 L33.4599294,10.4320118 Z" id="Combined-Shape"></path>
                <path d="M214.947376,4.38007059 C214.918906,2.71454118 216.149612,1.48124706 217.8462,1.47475411 C219.392671,1.46830588 220.821377,2.86724706 220.821377,4.38654118 C220.822671,5.8696 219.374553,7.2336 217.778906,7.25171765 C216.205259,7.27112941 214.974553,6.0236 214.947376,4.38007059" id="Fill-22"></path>
            </g>
        </g>
    </g>
</svg>